<?xml version="1.0" encoding="utf-8"?>
<svg version="1.2" baseProfile="tiny" id="Layer_1" xmlns="http://www.w3.org/2000/svg" xmlns:xlink="http://www.w3.org/1999/xlink"
	 x="0px" y="0px" viewBox="0 0 48 48" xml:space="preserve">
<rect fill="#007296" width="48" height="48"/>
<path fill="#FFFFFF" d="M38.6,9.3c-2.3-0.1-4.4,0.3-6.4,1.2l-4.6,2l-3.8,1.7l10,7.4c0.3,0.2,0.4,0.3,0.4,0.4c0,0.1-0.1,0.3-0.2,0.5
	c-0.1,0.1-0.3,0.2-0.4,0.2c-0.2,0-0.5,0-1-0.2L22,18.3c-1.3-0.6-2.6-0.9-4-1c-1.2,0-2.4,0.2-3.4,0.6c-1.2,0.5-1.9,1.2-2.2,2.2
	c-0.2,1,0.2,2,1.2,2.9l8.6,7.6c0.2,0.2,0.4,0.4,0.5,0.6c0.1,0.2,0,0.4-0.2,0.5C22.5,32,22.3,32,22,32c-0.3,0-0.6-0.1-0.9-0.4
	c-0.3-0.2-16.1-9.1-16.1-9.1l-3.9,1.7l16.5,10.2c1.9,1.1,3.6,1.8,5.1,1.8c1.4,0.1,2.4-0.3,3.3-1.1c1-1,1.6-2,1.7-3
	c0.2-1.2-0.3-2.3-1.5-3.3l-8.1-6.9c-0.3-0.2-0.4-0.4-0.4-0.6c0-0.2,0.1-0.3,0.2-0.4c0.1-0.1,0.3-0.1,0.5-0.1c0.2,0,0.5,0.1,0.8,0.2
	l10.5,5c1.5,0.5,2.8,0.7,3.9,0.5c1.2-0.2,2.2-0.7,3.1-1.5c1-1,1.6-1.9,1.8-2.8c0.3-1-0.1-1.9-1-2.5l-7.4-5.2l3.8-2
	c0.9-0.5,1.9-0.6,3.1-0.5c1,0.1,2,0.4,2.8,0.9c0.9,0.5,1.4,1.1,1.6,1.8c0.2,0.8,0,1.5-0.8,2.1l-0.7,0.6c-0.8,0.7-0.9,1.6-0.2,2.1
	c0.7,0.5,2,0.3,2.8-0.4l1.2-1.1c1.6-1.5,2.3-3,2.2-4.5c-0.1-1.2-0.8-2.2-2.2-2.9C42.3,9.6,40.6,9.3,38.6,9.3z"/>
</svg>
